HIERARCHY
ROOT Hips
{
	OFFSET 0.000000 88.474243 0.000000
	CHANNELS 6 Xposition Yposition Zposition Zrotation Yrotation Xrotation 
	JOINT Hips_Spine
	{
		OFFSET 0.000000 0.000000 0.000000
		CHANNELS 3 Zrotation Yrotation Xrotation
		JOINT Spine
		{
			OFFSET 0.005100 8.711998 -0.691000
			CHANNELS 3 Zrotation Yrotation Xrotation
			JOINT Spine1
			{
				OFFSET -0.009200 8.660301 -1.275000
				CHANNELS 3 Zrotation Yrotation Xrotation
				JOINT Spine2
				{
					OFFSET 0.006300 9.852501 -1.857000
					CHANNELS 3 Zrotation Yrotation Xrotation
					JOINT Spine2_Neck
					{
						OFFSET 0.000000 0.000000 0.000000
						CHANNELS 3 Zrotation Yrotation Xrotation
						JOINT Neck
						{
							OFFSET 0.016300 11.420799 -0.263300
							CHANNELS 3 Zrotation Yrotation Xrotation
							End Site #name: Head
							{
								OFFSET -0.019200 9.262405 2.362500
							}
						}
					}
					JOINT Spine2_LeftShoulder
					{
						OFFSET 0.000000 0.000000 0.000000
						CHANNELS 3 Zrotation Yrotation Xrotation
						JOINT LeftShoulder
						{
							OFFSET 5.616900 6.732201 -0.345700
							CHANNELS 3 Zrotation Yrotation Xrotation
							JOINT LeftArm
							{
								OFFSET 10.664888 -0.183372 -2.440700
								CHANNELS 3 Zrotation Yrotation Xrotation
								JOINT LeftForeArm
								{
									OFFSET 27.459126 0.000000 0.000000
									CHANNELS 3 Zrotation Yrotation Xrotation
									End Site #name: LeftHand
									{
										OFFSET 21.306858 0.000000 0.000000
									}
								}
							}
						}
					}
					JOINT Spine2_RightShoulder
					{
						OFFSET 0.000000 0.000000 0.000000
						CHANNELS 3 Zrotation Yrotation Xrotation
						JOINT RightShoulder
						{
							OFFSET -5.580300 6.737503 -0.344400
							CHANNELS 3 Zrotation Yrotation Xrotation
							JOINT RightArm
							{
								OFFSET -10.679335 -0.188484 -2.383900
								CHANNELS 3 Zrotation Yrotation Xrotation
								JOINT RightForeArm
								{
									OFFSET -27.503529 0.000000 0.000000
									CHANNELS 3 Zrotation Yrotation Xrotation
									End Site #name: RightHand
									{
										OFFSET -21.306808 0.000000 0.000000
									}
								}
							}
						}
					}
				}
			}
		}
	}
	JOINT Hips_LeftUpLeg
	{
		OFFSET 0.000000 0.000000 0.000000
		CHANNELS 3 Zrotation Yrotation Xrotation
		JOINT LeftUpLeg
		{
			OFFSET 6.857700 -6.739601 0.312100
			CHANNELS 3 Zrotation Yrotation Xrotation
			JOINT LeftLeg
			{
				OFFSET -0.367590 -34.731552 -4.572400
				CHANNELS 3 Zrotation Yrotation Xrotation
				End Site #name: LeftFoot
				{
					OFFSET 0.367590 -34.656704 -6.067400
				}
			}
		}
	}
	JOINT Hips_RightUpLeg
	{
		OFFSET 0.000000 0.000000 0.000000
		CHANNELS 3 Zrotation Yrotation Xrotation
		JOINT RightUpLeg
		{
			OFFSET -6.876100 -6.733299 0.301000
			CHANNELS 3 Zrotation Yrotation Xrotation
			JOINT RightLeg
			{
				OFFSET 0.347353 -34.795158 -4.515900
				CHANNELS 3 Zrotation Yrotation Xrotation
				End Site #name: RightFoot
				{
					OFFSET -0.347353 -34.589367 -6.070300
				}
			}
		}
	}
}
MOTION
Frames: 6
Frame Time: 0.041667
-0.080581 0.076501 0.043124 -3.630676 0.797640 -4.662507 -0.000000 0.000000 0.000000 -0.601169 0.825774 5.819139 -1.432010 1.326562 9.854653 0.000000 0.000000 0.000000 -1.811943 1.046235 9.419484 -0.772612 -3.736173 3.693324 -1.836677 1.024248 9.856485 -1.142294 -1.169381 0.116003 -68.500029 -23.656185 17.364339 136.960120 -88.052840 -137.555091 -1.466068 1.714090 10.625133 -4.776255 -0.390100 1.454551 77.190082 -0.082104 6.470088 171.912403 84.400277 173.770604 0.000000 -0.000000 0.000000 7.100736 1.148931 -18.970679 -1.603512 0.386941 33.850492 0.000000 0.000000 -0.000000 -4.399910 -2.725956 -15.032484 -0.508305 -2.239539 27.844893 
-0.035874 0.121930 0.164403 -4.574477 -1.804442 -4.368950 -0.000000 0.000000 0.000000 -0.579067 0.331422 5.423684 -2.007264 1.386040 10.387827 0.000000 0.000000 0.000000 -1.839065 1.390780 10.308409 -1.488178 -4.126177 4.740651 -1.971920 1.396548 10.511619 0.350317 1.096731 -0.315454 -68.349064 -22.007780 28.934288 177.646291 -84.312523 -177.743670 -1.729280 1.195738 10.013769 -5.363409 -2.775772 0.759131 83.472552 -8.072815 5.298288 -171.624478 85.487692 -171.610958 0.000000 -0.000000 0.000000 7.540839 0.462618 -22.137928 -0.612209 1.135651 32.527802 0.000000 0.000000 0.000000 -3.235376 -3.413704 -15.478597 0.894532 -0.860667 26.962665 
0.147432 0.122633 0.123380 -4.478299 -5.051341 -3.587377 -0.000000 0.000000 0.000000 -0.683746 0.448321 5.327934 -2.315440 1.459309 10.712075 0.000000 0.000000 0.000000 -2.236166 1.573055 11.030236 -1.667935 -3.719246 4.462385 -1.921892 1.554119 10.583299 0.795019 0.726476 -0.328599 -69.856186 -17.762921 32.038556 -178.659808 -81.869124 178.576909 -1.973198 1.411386 10.042022 -4.248927 -2.057733 0.684302 81.854508 -9.490959 8.398838 -166.055005 86.733591 -166.248561 0.000000 -0.000000 0.000000 7.856180 0.993873 -22.686563 -0.889148 0.490581 34.902219 0.000000 0.000000 0.000000 -3.036558 -3.483849 -16.378501 0.687328 -1.078809 26.461098 
0.284393 0.090412 0.090985 -4.340770 -6.651147 -2.981414 -0.000000 -0.000000 0.000000 -0.578303 0.681395 5.145732 -2.164135 1.613371 10.526285 0.000000 0.000000 0.000000 -2.097685 1.663076 10.513330 -1.747818 -3.852313 4.990561 -1.950314 1.663997 10.528190 1.521101 0.427543 -0.084673 -70.682977 -17.208087 33.078520 -178.852569 -81.169005 178.707376 -2.053348 1.596652 9.865870 -4.160251 -1.064388 1.084372 79.902469 -8.579191 10.059623 -167.239990 85.134086 -167.640020 0.000000 -0.000000 0.000000 7.489821 1.118157 -23.253041 -1.203015 0.384504 35.296462 0.000000 0.000000 0.000000 -2.675444 -3.213464 -17.243885 0.520603 -0.622888 26.567040 
0.351941 0.074012 0.143432 -4.569277 -6.627952 -2.538739 -0.000000 -0.000000 0.000000 -0.497434 0.749030 5.053313 -1.976806 1.584387 10.058470 0.000000 0.000000 0.000000 -2.018903 1.622778 10.093932 -1.620393 -3.857436 5.336476 -1.923518 1.658881 10.245104 1.831385 0.420621 0.125881 -70.820142 -17.839147 32.180102 -177.534672 -82.950521 177.590528 -2.020941 1.586400 9.849460 -4.438145 -1.655419 1.289083 79.937038 -8.394518 9.591679 -163.296822 85.580570 -163.894786 0.000000 -0.000000 0.000000 7.144008 1.335043 -23.203703 -1.240794 0.543841 34.597685 0.000000 0.000000 0.000000 -2.468428 -3.116003 -17.528395 0.508158 -0.426747 26.048165 
0.431096 0.061223 0.203682 -4.819164 -5.923309 -2.404861 -0.000000 -0.000000 0.000000 -0.483880 0.760393 5.044882 -1.866384 1.520227 9.718459 0.000000 0.000000 0.000000 -1.927299 1.516581 9.856165 -1.373879 -3.717362 5.362207 -1.882944 1.579872 9.964213 1.915456 0.586065 0.231185 -71.027441 -18.632512 30.909493 -175.534213 -84.069422 175.668697 -1.966846 1.524128 9.813289 -4.627146 -2.295329 1.377602 80.508579 -8.342629 8.144152 -162.946869 85.676340 -163.547474 0.000000 -0.000000 0.000000 6.946430 1.386945 -22.931926 -1.207086 0.709734 33.900407 0.000000 -0.000000 0.000000 -2.482239 -3.031798 -17.265703 0.329721 -0.529064 25.459069 
